<svg xmlns="http://www.w3.org/2000/svg" width="512" height="512" viewBox="0 0 36 36" fill="none"><path fill="#0A1C50" d="M22.563 19.916a6.43 6.43 0 0 1-9.127 0 6.47 6.47 0 0 1-1.576-2.583l-6.072 1.984a12.87 12.87 0 0 0 3.135 5.136L18 33.576l9.076-9.123a12.872 12.872 0 0 0 3.135-5.136l-6.072-1.984a6.467 6.467 0 0 1-1.576 2.583ZM8.921 6.204a12.864 12.864 0 0 0-3.133 5.134l6.07 1.985a6.466 6.466 0 0 1 1.576-2.583 6.433 6.433 0 0 1 9.13 0 6.465 6.465 0 0 1 1.576 2.583l6.072-1.983a12.873 12.873 0 0 0-3.135-5.136 12.791 12.791 0 0 0-18.156 0Z"/></svg>